<svg xmlns="http://www.w3.org/2000/svg" viewBox="0 0 380 380" width="380" height="380">
    <rect width="100%" height="100%" fill="#ffffff" />
    <rect x="20" y="20" width="100" height="100" fill="none" stroke="#ccc" stroke-width="2"/><circle cx="70" cy="70" r="20" fill="#333" stroke="none" stroke-width="2"/><rect x="140" y="20" width="100" height="100" fill="none" stroke="#ccc" stroke-width="2"/><rect x="175" y="55" width="30" height="30" fill="#333" stroke="none" stroke-width="2"/><rect x="260" y="20" width="100" height="100" fill="none" stroke="#ccc" stroke-width="2"/><circle cx="310" cy="70" r="20" fill="#333" stroke="none" stroke-width="2"/><rect x="295" y="55" width="30" height="30" fill="#333" stroke="none" stroke-width="2"/><rect x="20" y="140" width="100" height="100" fill="none" stroke="#ccc" stroke-width="2"/><rect x="50" y="170" width="40" height="40" fill="#333" stroke="none" stroke-width="2"/><rect x="140" y="140" width="100" height="100" fill="none" stroke="#ccc" stroke-width="2"/><polygon points="190,175 175,205 205,205" fill="#333" stroke="none" stroke-width="2"/><rect x="260" y="140" width="100" height="100" fill="none" stroke="#ccc" stroke-width="2"/><rect x="290" y="170" width="40" height="40" fill="#333" stroke="none" stroke-width="2"/><polygon points="310,175 295,205 325,205" fill="#333" stroke="none" stroke-width="2"/><rect x="20" y="260" width="100" height="100" fill="none" stroke="#ccc" stroke-width="2"/><circle cx="70" cy="310" r="20" fill="#333" stroke="none" stroke-width="2"/><rect x="140" y="260" width="100" height="100" fill="none" stroke="#ccc" stroke-width="2"/><polygon points="190,295 175,325 205,325" fill="#333" stroke="none" stroke-width="2"/><rect x="260" y="260" width="100" height="100" fill="none" stroke="#ccc" stroke-width="2"/><text x="310" y="320" font-size="36" font-family="Arial" font-weight="bold" fill="#aaa" text-anchor="middle">?</text>
  </svg>