<svg xmlns="http://www.w3.org/2000/svg" viewBox="0 0 380 380" width="380" height="380">
    <rect width="100%" height="100%" fill="#ffffff" />
    <rect x="20" y="20" width="100" height="100" fill="none" stroke="#ccc" stroke-width="2"/><circle cx="50" cy="50" r="15" fill="#333" stroke="none" stroke-width="2"/><rect x="140" y="20" width="100" height="100" fill="none" stroke="#ccc" stroke-width="2"/><circle cx="210" cy="50" r="15" fill="#333" stroke="none" stroke-width="2"/><rect x="260" y="20" width="100" height="100" fill="none" stroke="#ccc" stroke-width="2"/><circle cx="330" cy="90" r="15" fill="#333" stroke="none" stroke-width="2"/><rect x="20" y="140" width="100" height="100" fill="none" stroke="#ccc" stroke-width="2"/><circle cx="90" cy="210" r="15" fill="#333" stroke="none" stroke-width="2"/><rect x="140" y="140" width="100" height="100" fill="none" stroke="#ccc" stroke-width="2"/><circle cx="170" cy="210" r="15" fill="#333" stroke="none" stroke-width="2"/><rect x="260" y="140" width="100" height="100" fill="none" stroke="#ccc" stroke-width="2"/><circle cx="290" cy="170" r="15" fill="#333" stroke="none" stroke-width="2"/><rect x="20" y="260" width="100" height="100" fill="none" stroke="#ccc" stroke-width="2"/><circle cx="50" cy="290" r="15" fill="#333" stroke="none" stroke-width="2"/><rect x="140" y="260" width="100" height="100" fill="none" stroke="#ccc" stroke-width="2"/><circle cx="210" cy="290" r="15" fill="#333" stroke="none" stroke-width="2"/><rect x="260" y="260" width="100" height="100" fill="none" stroke="#ccc" stroke-width="2"/><text x="310" y="320" font-size="36" font-family="Arial" font-weight="bold" fill="#aaa" text-anchor="middle">?</text>
  </svg>