<svg xmlns="http://www.w3.org/2000/svg" viewBox="0 0 260 260" width="260" height="260">
    <rect width="100%" height="100%" fill="#ffffff" />
    <rect x="20" y="20" width="100" height="100" fill="none" stroke="#ccc" stroke-width="2"/><rect x="30" y="30" width="80" height="80" fill="none" stroke="#000" stroke-width="2"/><circle cx="70" cy="70" r="20" fill="#3498db" stroke="none" stroke-width="2"/><rect x="140" y="20" width="100" height="100" fill="none" stroke="#ccc" stroke-width="2"/><circle cx="190" cy="70" r="40" fill="none" stroke="#000" stroke-width="2"/><rect x="170" y="50" width="40" height="40" fill="#3498db" stroke="none" stroke-width="2"/><rect x="20" y="140" width="100" height="100" fill="none" stroke="#ccc" stroke-width="2"/><polygon points="70,150 30,190 70,230 110,190" fill="none" stroke="#000" stroke-width="2"/><polygon points="70,170 75.87785252292473,181.9098300562505 89.02113032590307,183.81966011250105 79.51056516295154,193.0901699437495 81.75570504584947,206.18033988749895 70,200 58.24429495415054,206.18033988749895 60.489434837048464,193.0901699437495 50.97886967409693,183.81966011250105 64.12214747707527,181.90983005625054" fill="#e74c3c" stroke="none" stroke-width="2"/><rect x="140" y="140" width="100" height="100" fill="none" stroke="#ccc" stroke-width="2"/><text x="190" y="200" font-size="36" font-family="Arial" font-weight="bold" fill="#aaa" text-anchor="middle">?</text>
  </svg>