<svg xmlns="http://www.w3.org/2000/svg" viewBox="0 0 380 380" width="380" height="380">
    <rect width="100%" height="100%" fill="#ffffff" />
    <rect x="20" y="20" width="100" height="100" fill="none" stroke="#ccc" stroke-width="2"/><path d="M55,68.5 H58.5 V65 H61.5 V68.5 H65 V71.5 H61.5 V75 H58.5 V71.5 H55 Z" fill="#333" stroke="none" stroke-width="2"/><rect x="140" y="20" width="100" height="100" fill="none" stroke="#ccc" stroke-width="2"/><path d="M175,68.5 H178.5 V65 H181.5 V68.5 H185 V71.5 H181.5 V75 H178.5 V71.5 H175 Z" fill="#333" stroke="none" stroke-width="2"/><path d="M195,68.5 H198.5 V65 H201.5 V68.5 H205 V71.5 H201.5 V75 H198.5 V71.5 H195 Z" fill="#333" stroke="none" stroke-width="2"/><rect x="260" y="20" width="100" height="100" fill="none" stroke="#ccc" stroke-width="2"/><path d="M285,68.5 H288.5 V65 H291.5 V68.5 H295 V71.5 H291.5 V75 H288.5 V71.5 H285 Z" fill="#333" stroke="none" stroke-width="2"/><path d="M305,68.5 H308.5 V65 H311.5 V68.5 H315 V71.5 H311.5 V75 H308.5 V71.5 H305 Z" fill="#333" stroke="none" stroke-width="2"/><path d="M325,68.5 H328.5 V65 H331.5 V68.5 H335 V71.5 H331.5 V75 H328.5 V71.5 H325 Z" fill="#333" stroke="none" stroke-width="2"/><rect x="20" y="140" width="100" height="100" fill="none" stroke="#ccc" stroke-width="2"/><rect x="55" y="185" width="10" height="10" fill="#333" stroke="none" stroke-width="2"/><rect x="75" y="185" width="10" height="10" fill="#333" stroke="none" stroke-width="2"/><rect x="140" y="140" width="100" height="100" fill="none" stroke="#ccc" stroke-width="2"/><rect x="165" y="185" width="10" height="10" fill="#333" stroke="none" stroke-width="2"/><rect x="185" y="185" width="10" height="10" fill="#333" stroke="none" stroke-width="2"/><rect x="205" y="185" width="10" height="10" fill="#333" stroke="none" stroke-width="2"/><rect x="260" y="140" width="100" height="100" fill="none" stroke="#ccc" stroke-width="2"/><rect x="285" y="175" width="10" height="10" fill="#333" stroke="none" stroke-width="2"/><rect x="305" y="175" width="10" height="10" fill="#333" stroke="none" stroke-width="2"/><rect x="325" y="175" width="10" height="10" fill="#333" stroke="none" stroke-width="2"/><rect x="305" y="195" width="10" height="10" fill="#333" stroke="none" stroke-width="2"/><rect x="20" y="260" width="100" height="100" fill="none" stroke="#ccc" stroke-width="2"/><circle cx="50" cy="310" r="5" fill="#333" stroke="none" stroke-width="2"/><circle cx="70" cy="310" r="5" fill="#333" stroke="none" stroke-width="2"/><circle cx="90" cy="310" r="5" fill="#333" stroke="none" stroke-width="2"/><rect x="140" y="260" width="100" height="100" fill="none" stroke="#ccc" stroke-width="2"/><circle cx="170" cy="300" r="5" fill="#333" stroke="none" stroke-width="2"/><circle cx="190" cy="300" r="5" fill="#333" stroke="none" stroke-width="2"/><circle cx="210" cy="300" r="5" fill="#333" stroke="none" stroke-width="2"/><circle cx="190" cy="320" r="5" fill="#333" stroke="none" stroke-width="2"/><rect x="260" y="260" width="100" height="100" fill="none" stroke="#ccc" stroke-width="2"/><text x="310" y="320" font-size="36" font-family="Arial" font-weight="bold" fill="#aaa" text-anchor="middle">?</text>
  </svg>