<svg xmlns="http://www.w3.org/2000/svg" viewBox="0 0 380 380" width="380" height="380">
    <rect width="100%" height="100%" fill="#ffffff" />
    <rect x="20" y="20" width="100" height="100" fill="none" stroke="#ccc" stroke-width="2"/><polygon points="70,40 78.8167787843871,57.864745084375784 98.53169548885461,60.72949016875158 84.2658477444273,74.63525491562422 87.6335575687742,94.27050983124843 70,85 52.366442431225806,94.27050983124843 55.734152255572695,74.63525491562422 41.46830451114539,60.72949016875158 61.1832212156129,57.86474508437579" fill="#e74c3c" stroke="none" stroke-width="2"/><rect x="140" y="20" width="100" height="100" fill="none" stroke="#ccc" stroke-width="2"/><polygon points="190,40 198.8167787843871,57.864745084375784 218.5316954888546,60.72949016875158 204.2658477444273,74.63525491562422 207.6335575687742,94.27050983124843 190,85 172.3664424312258,94.27050983124843 175.7341522555727,74.63525491562422 161.4683045111454,60.72949016875158 181.1832212156129,57.86474508437579" fill="#f1c40f" stroke="none" stroke-width="2"/><rect x="260" y="20" width="100" height="100" fill="none" stroke="#ccc" stroke-width="2"/><polygon points="310,40 318.8167787843871,57.864745084375784 338.5316954888546,60.72949016875158 324.2658477444273,74.63525491562422 327.6335575687742,94.27050983124843 310,85 292.36644243122583,94.27050983124843 295.7341522555727,74.63525491562422 281.4683045111454,60.72949016875158 301.1832212156129,57.86474508437579" fill="#3498db" stroke="none" stroke-width="2"/><rect x="20" y="140" width="100" height="100" fill="none" stroke="#ccc" stroke-width="2"/><polygon points="70,160 78.8167787843871,177.86474508437578 98.53169548885461,180.72949016875157 84.2658477444273,194.63525491562422 87.6335575687742,214.27050983124843 70,205 52.366442431225806,214.27050983124843 55.734152255572695,194.63525491562422 41.46830451114539,180.72949016875157 61.1832212156129,177.86474508437578" fill="#f1c40f" stroke="none" stroke-width="2"/><rect x="140" y="140" width="100" height="100" fill="none" stroke="#ccc" stroke-width="2"/><polygon points="190,160 198.8167787843871,177.86474508437578 218.5316954888546,180.72949016875157 204.2658477444273,194.63525491562422 207.6335575687742,214.27050983124843 190,205 172.3664424312258,214.27050983124843 175.7341522555727,194.63525491562422 161.4683045111454,180.72949016875157 181.1832212156129,177.86474508437578" fill="#3498db" stroke="none" stroke-width="2"/><rect x="260" y="140" width="100" height="100" fill="none" stroke="#ccc" stroke-width="2"/><polygon points="310,160 318.8167787843871,177.86474508437578 338.5316954888546,180.72949016875157 324.2658477444273,194.63525491562422 327.6335575687742,214.27050983124843 310,205 292.36644243122583,214.27050983124843 295.7341522555727,194.63525491562422 281.4683045111454,180.72949016875157 301.1832212156129,177.86474508437578" fill="#e74c3c" stroke="none" stroke-width="2"/><rect x="20" y="260" width="100" height="100" fill="none" stroke="#ccc" stroke-width="2"/><polygon points="70,280 78.8167787843871,297.8647450843758 98.53169548885461,300.72949016875157 84.2658477444273,314.6352549156242 87.6335575687742,334.27050983124843 70,325 52.366442431225806,334.27050983124843 55.734152255572695,314.6352549156242 41.46830451114539,300.72949016875157 61.1832212156129,297.8647450843758" fill="#3498db" stroke="none" stroke-width="2"/><rect x="140" y="260" width="100" height="100" fill="none" stroke="#ccc" stroke-width="2"/><polygon points="190,280 198.8167787843871,297.8647450843758 218.5316954888546,300.72949016875157 204.2658477444273,314.6352549156242 207.6335575687742,334.27050983124843 190,325 172.3664424312258,334.27050983124843 175.7341522555727,314.6352549156242 161.4683045111454,300.72949016875157 181.1832212156129,297.8647450843758" fill="#e74c3c" stroke="none" stroke-width="2"/><rect x="260" y="260" width="100" height="100" fill="none" stroke="#ccc" stroke-width="2"/><text x="310" y="320" font-size="36" font-family="Arial" font-weight="bold" fill="#aaa" text-anchor="middle">?</text>
  </svg>